<svg width="64" height="64" viewBox="0 0 64 64" fill="none" xmlns="http://www.w3.org/2000/svg">
<g clip-path="url(#clip0_281_160)">
<path d="M23.4738 12.2987C25.294 12.1368 27.8423 12.7234 29.5119 13.4344C31.1497 14.132 32.7052 15.1476 34.3234 15.9041C36.9746 15.2746 39.4185 14.8811 42.1711 14.8738C48.0992 14.8584 55.385 16.4723 58.5227 22.0653C58.9143 22.7633 59.1894 23.5243 59.51 24.2567C60.8431 25.2084 63.5647 26.028 63.9572 27.7869C64.1893 28.8266 63.4488 29.6586 62.3908 29.7528C60.7688 29.8967 59.0924 29.7261 57.4592 29.785C54.6918 29.8812 51.7939 30.0927 49.0617 30.5487C48.4596 31.5121 48.0337 32.4039 47.3146 33.3543C46.1636 34.8919 44.6161 36.3307 42.6574 36.6707C42.4693 36.7032 42.213 36.6966 42.0627 36.5672C42.0014 36.5146 41.8859 36.3665 41.9094 36.2811C42.087 35.6403 42.4181 35.0644 42.6242 34.41C42.8575 33.6699 42.8866 32.902 43.1662 32.1932C43.5598 31.5801 44.3904 30.4796 44.8644 29.9383C45.4195 29.8238 46.0508 29.7531 46.6164 29.6932C50.584 29.2725 54.5911 28.6646 58.5871 28.6697C58.2616 28.5352 57.2734 28.3136 56.8811 28.2235C53.6748 27.4863 50.5881 27.2213 47.3088 27.5623C46.3842 27.6585 45.4107 27.695 44.5041 27.9676C42.5479 31.4541 39.8037 34.8604 36.0324 36.5008C35.3937 36.7786 33.9075 37.2532 33.2775 36.994C32.9712 36.6559 33.3153 36.2091 33.5764 35.9422C35.48 33.9932 36.7931 31.1581 36.9064 28.3983C32.2985 28.1637 25.3863 31.1186 21.4797 33.5496C21.4482 33.5686 21.4162 33.5879 21.385 33.6072C18.5708 35.3504 14.8697 38.5664 13.2551 41.4969C12.8876 42.1639 12.6902 42.8454 12.5178 43.5789C12.6435 43.3975 12.7763 43.2211 12.9152 43.0496C13.3981 42.4543 14.0321 41.8508 14.5344 41.283C18.6662 36.613 23.6251 34.4038 29.5305 32.7869C30.999 32.3849 33.3338 31.7539 34.8537 31.5994C34.4385 31.7774 33.7496 31.9729 33.2873 32.1336C32.1102 32.5335 30.9446 32.9667 29.7922 33.4324C24.9139 35.4569 19.9891 38.2849 16.0617 41.8348C15.4188 42.4159 14.5859 43.1673 14.0734 43.8436C14.0384 45.3111 14.782 46.3125 15.1057 47.7186C15.2914 48.5259 15.3953 51.5032 14.2707 51.7283C13.8121 51.6017 13.6747 50.8016 13.0285 50.2381C11.5108 48.9147 10.1533 48.704 8.85175 47.036C6.37537 48.6919 4.34172 47.8255 1.76093 48.7528C1.33243 48.9067 0.653671 49.5195 0.189645 49.4393C0.102632 49.3465 0.0376692 49.2968 0.0109341 49.1678C-0.048163 48.8813 0.149533 48.3775 0.252145 48.1092C1.17754 45.6908 3.73103 43.838 5.98457 42.7576C6.8925 42.3224 8.2305 41.8972 8.90058 41.1112C9.26276 40.6862 9.40947 39.8722 9.58515 39.3426C10.6208 36.2206 11.9197 33.213 13.716 30.4451C15.4584 27.7604 17.7709 25.3237 20.0461 23.0838C21.0018 22.1429 22.4112 21.0638 23.1369 19.991C23.5758 19.3422 23.7635 18.6556 23.759 17.8758C23.7416 14.896 21.0059 14.6962 20.7902 13.3797C20.7678 13.2421 20.8062 13.1109 20.8918 13.0018C21.3382 12.4328 22.7924 12.3743 23.4738 12.2987ZM54.4074 25.202C56.3115 26.1439 58.352 26.8451 60.3644 27.5213C60.7325 27.645 62.0549 28.071 62.3859 28.119C61.1148 27.1445 56.0126 25.1478 54.4074 25.202ZM52.3127 22.8602C52.0123 22.9321 51.7001 23.0079 51.5275 23.2977C51.446 23.4308 51.4236 23.5922 51.466 23.742C51.6083 24.2429 52.1179 24.399 52.5744 24.4529C52.8751 24.3971 53.1569 24.3469 53.3469 24.0711C53.4453 23.9282 53.4792 23.75 53.4396 23.5809C53.3188 23.0608 52.7873 22.878 52.3127 22.8602Z" fill="#005E9D"/>
<path d="M41.5223 16.5079C43.671 16.2852 47.5884 16.7204 49.6146 17.3439C53.0481 18.4003 54.9758 19.506 56.713 22.6151C50.2607 16.788 39.9535 17.7495 32.3006 20.2164C28.9881 21.3596 25.8164 22.876 22.8469 24.7363C21.6536 25.488 20.4638 26.4092 19.3417 27.1085C20.0854 26.3601 20.8963 25.5189 21.6849 24.8354C27.3502 19.9255 34.0024 16.9112 41.5223 16.5079Z" fill="#76B6DC"/>
<path d="M37.4836 39.643C41.8225 39.3837 49.4209 40.135 51.4743 44.7276C50.6333 44.314 50.1147 43.9746 49.1734 43.649C44.0225 41.8676 38.4985 42.1181 33.1868 42.6079C28.361 43.1705 23.2692 44.7075 18.5452 44.757C23.9291 42.062 31.474 39.9001 37.4836 39.643Z" fill="#005E9D"/>
<path d="M36.2879 44.3437C39.1768 44.0633 43.7112 44.6081 45.0554 47.6043C41.2685 45.3231 35.0842 46.5263 31.0322 47.3105C27.4186 47.9641 25.0395 48.1917 21.4057 47.8732C22.1404 47.5639 23.5688 47.1572 24.3686 46.8978C28.3192 45.6168 32.1174 44.6131 36.2879 44.3437Z" fill="#005E9D"/>
</g>
<defs>
<clipPath id="clip0_281_160">
<rect width="64" height="64" fill="white"/>
</clipPath>
</defs>
</svg>
