<svg width="1380" height="154" viewBox="0 0 1380 154" fill="none" xmlns="http://www.w3.org/2000/svg">
<path d="M1344.84 153.698C1331.06 153.698 1321.12 150.267 1315 143.406C1308.94 136.544 1305.91 125.623 1305.91 110.642V95.8898H1335.75V114.759C1335.75 118.247 1336.27 120.992 1337.29 122.993C1338.38 124.937 1340.24 125.909 1342.87 125.909C1345.61 125.909 1347.5 125.108 1348.53 123.507C1349.61 121.906 1350.16 119.276 1350.16 115.617C1350.16 110.985 1349.7 107.126 1348.79 104.038C1347.87 100.893 1346.27 97.9196 1343.98 95.1179C1341.75 92.2589 1338.64 88.9425 1334.64 85.1686L1321.09 72.3033C1310.97 62.7543 1305.91 51.8331 1305.91 39.5395C1305.91 26.6742 1308.88 16.8679 1314.83 10.1207C1320.83 3.37358 1329.49 0 1340.81 0C1354.65 0 1364.45 3.68807 1370.22 11.0642C1376.06 18.4403 1378.97 29.6475 1378.97 44.6857H1348.27V34.3076C1348.27 32.2492 1347.67 30.6481 1346.47 29.5045C1345.33 28.361 1343.75 27.7892 1341.75 27.7892C1339.35 27.7892 1337.58 28.4753 1336.44 29.8476C1335.35 31.1627 1334.81 32.8781 1334.81 34.9938C1334.81 37.1094 1335.38 39.3966 1336.52 41.8553C1337.67 44.314 1339.92 47.1444 1343.3 50.3464L1360.71 67.0714C1364.19 70.3878 1367.39 73.9043 1370.31 77.621C1373.23 81.2805 1375.57 85.5689 1377.34 90.4863C1379.11 95.3466 1380 101.293 1380 108.326C1380 122.507 1377.37 133.628 1372.11 141.69C1366.91 149.696 1357.82 153.698 1344.84 153.698Z" fill="#000910"/>
<path d="M1268.99 153.698C1255.21 153.698 1245.26 150.267 1239.14 143.406C1233.08 136.544 1230.06 125.623 1230.06 110.642V95.8898H1259.9V114.759C1259.9 118.247 1260.41 120.992 1261.44 122.993C1262.53 124.937 1264.39 125.909 1267.01 125.909C1269.76 125.909 1271.65 125.108 1272.67 123.507C1273.76 121.906 1274.3 119.276 1274.3 115.617C1274.3 110.985 1273.85 107.126 1272.93 104.038C1272.02 100.893 1270.42 97.9196 1268.13 95.1179C1265.9 92.2589 1262.78 88.9425 1258.78 85.1686L1245.23 72.3033C1235.11 62.7543 1230.06 51.8331 1230.06 39.5395C1230.06 26.6742 1233.03 16.8679 1238.97 10.1207C1244.98 3.37358 1253.64 0 1264.96 0C1278.79 0 1288.6 3.68807 1294.37 11.0642C1300.2 18.4403 1303.12 29.6475 1303.12 44.6857H1272.42V34.3076C1272.42 32.2492 1271.82 30.6481 1270.62 29.5045C1269.47 28.361 1267.9 27.7892 1265.9 27.7892C1263.5 27.7892 1261.73 28.4753 1260.58 29.8476C1259.5 31.1627 1258.95 32.8781 1258.95 34.9938C1258.95 37.1094 1259.53 39.3966 1260.67 41.8553C1261.81 44.314 1264.07 47.1444 1267.44 50.3464L1284.85 67.0714C1288.34 70.3878 1291.54 73.9043 1294.46 77.621C1297.37 81.2805 1299.72 85.5689 1301.49 90.4863C1303.26 95.3466 1304.15 101.293 1304.15 108.326C1304.15 122.507 1301.52 133.628 1296.26 141.69C1291.05 149.696 1281.96 153.698 1268.99 153.698Z" fill="#000910"/>
<path d="M1166.03 152.326V1.3723H1226.41V30.5338H1196.73V59.9526H1225.2V88.3421H1196.73V122.907H1228.38V152.326H1166.03Z" fill="#000910"/>
<path d="M1087.61 152.326V1.3723H1133.92C1141.63 1.3723 1147.46 3.14486 1151.41 6.68998C1155.35 10.1779 1157.98 15.0953 1159.3 21.4423C1160.67 27.732 1161.36 35.1367 1161.36 43.6564C1161.36 51.8903 1160.3 58.4659 1158.18 63.3833C1156.13 68.3007 1152.21 71.7029 1146.44 73.5898C1151.18 74.5619 1154.5 76.9348 1156.38 80.7087C1158.33 84.4253 1159.3 89.257 1159.3 95.2036V152.326H1129.54V93.2309C1129.54 88.8281 1128.63 86.1121 1126.8 85.0829C1125.03 83.9965 1122.14 83.4533 1118.14 83.4533V152.326H1087.61ZM1118.31 57.2937H1125.6C1129.77 57.2937 1131.86 52.748 1131.86 43.6564C1131.86 37.767 1131.4 33.9074 1130.48 32.0776C1129.57 30.2479 1127.86 29.333 1125.34 29.333H1118.31V57.2937Z" fill="#000910"/>
<path d="M1009.87 152.326V1.3723H1049.74C1058.09 1.3723 1064.69 3.23063 1069.55 6.94729C1074.47 10.6639 1077.98 15.953 1080.1 22.8146C1082.21 29.6761 1083.27 37.8527 1083.27 47.3445C1083.27 56.4932 1082.39 64.4697 1080.61 71.2741C1078.84 78.0212 1075.67 83.2531 1071.1 86.9698C1066.58 90.6865 1060.15 92.5448 1051.8 92.5448H1039.54V152.326H1009.87ZM1039.54 65.4418H1041.25C1046.86 65.4418 1050.29 63.8693 1051.54 60.7245C1052.8 57.5796 1053.43 52.9481 1053.43 46.8299C1053.43 41.112 1052.8 36.7091 1051.54 33.6215C1050.34 30.4766 1047.46 28.9042 1042.88 28.9042H1039.54V65.4418Z" fill="#000910"/>
<path d="M925.695 152.326L941.903 72.3033L929.04 1.28654H958.539L966.342 53.1768L973.288 1.28654H1002.87L990.01 72.3033L1006.13 152.326H975.604L966.085 93.3167L956.309 152.326H925.695Z" fill="#000910"/>
<path d="M862.961 152.326V1.3723H923.332V30.5338H893.661V59.9526H922.131V88.3421H893.661V122.907H925.304V152.326H862.961Z" fill="#000910"/>
<path d="M744.869 152.326V1.3723H775.911L789.803 73.6756V1.3723H818.96V152.326H789.46L774.368 76.8491V152.326H744.869Z" fill="#000910"/>
<path d="M708.976 152.326V1.3723H738.132V152.326H708.976Z" fill="#000910"/>
<path d="M627.976 152.326V1.3723H657.99V55.321H672.225V1.3723H702.239V152.326H672.225V83.8821H657.99V152.326H627.976Z" fill="#000910"/>
<path d="M550.236 152.326V1.3723H590.111C598.458 1.3723 605.061 3.23063 609.92 6.94729C614.837 10.6639 618.352 15.953 620.468 22.8146C622.583 29.6761 623.641 37.8527 623.641 47.3445C623.641 56.4932 622.754 64.4697 620.982 71.2741C619.21 78.0212 616.037 83.2531 611.464 86.9698C606.947 90.6865 600.516 92.5448 592.169 92.5448H579.906V152.326H550.236ZM579.906 65.4418H581.621C587.224 65.4418 590.654 63.8693 591.912 60.7245C593.169 57.5796 593.798 52.9481 593.798 46.8299C593.798 41.112 593.169 36.7091 591.912 33.6215C590.711 30.4766 587.824 28.9042 583.251 28.9042H579.906V65.4418Z" fill="#000910"/>
<path d="M485.701 152.326V1.3723H515.886V126.595H546.929V152.326H485.701Z" fill="#000910"/>
<path d="M441.576 153.698C429.513 153.698 420.28 150.067 413.877 142.805C407.531 135.486 404.359 124.937 404.359 111.157V39.4538C404.359 26.5312 407.503 16.725 413.791 10.035C420.137 3.34499 429.399 0 441.576 0C453.753 0 462.985 3.34499 469.274 10.035C475.62 16.725 478.793 26.5312 478.793 39.4538V111.157C478.793 124.937 475.591 135.486 469.188 142.805C462.842 150.067 453.638 153.698 441.576 153.698ZM441.833 125.909C446.406 125.909 448.693 121.478 448.693 112.615V38.9391C448.693 31.5058 446.464 27.7892 442.004 27.7892C436.974 27.7892 434.458 31.5916 434.458 39.1964V112.786C434.458 117.475 435.03 120.849 436.173 122.907C437.317 124.908 439.203 125.909 441.833 125.909Z" fill="#000910"/>
<path d="M324.217 152.326V1.3723H365.721C376.584 1.3723 384.759 4.40281 390.247 10.4638C395.735 16.4677 398.479 25.2733 398.479 36.8807V107.554C398.479 121.849 395.964 132.885 390.933 140.661C385.959 148.438 377.212 152.326 364.692 152.326H324.217ZM354.574 125.652H359.805C365.35 125.652 368.123 122.964 368.123 117.589V39.7111C368.123 34.6793 367.437 31.4486 366.065 30.0192C364.75 28.5325 362.034 27.7892 357.918 27.7892H354.574V125.652Z" fill="#000910"/>
<path d="M221.217 152.326V1.3723H281.587V30.5338H251.916V59.9526H280.386V88.3421H251.916V122.907H283.559V152.326H221.217Z" fill="#000910"/>
<path d="M178.206 153.698C165.629 153.698 156.367 150.182 150.422 143.149C144.476 136.058 141.504 125.652 141.504 111.929V1.3723H170.831V110.728C170.831 113.244 170.974 115.674 171.26 118.018C171.546 120.305 172.203 122.192 173.232 123.679C174.261 125.166 175.919 125.909 178.206 125.909C180.55 125.909 182.236 125.194 183.266 123.765C184.295 122.278 184.923 120.363 185.152 118.018C185.438 115.674 185.581 113.244 185.581 110.728V1.3723H214.909V111.929C214.909 125.652 211.936 136.058 205.99 143.149C200.045 150.182 190.783 153.698 178.206 153.698Z" fill="#000910"/>
<path d="M78.7697 152.326V1.3723H108.955V126.595H139.998V152.326H78.7697Z" fill="#000910"/>
<path d="M0 152.326V1.3723H40.9044C51.8809 1.3723 59.8559 4.05973 64.8296 9.43459C69.8605 14.7523 72.3759 23.5579 72.3759 35.8515V42.4557C72.3759 49.5459 71.0896 55.2924 68.517 59.6952C66.0016 64.0981 62.1427 66.9856 56.9403 68.3579C63.7434 70.0733 68.2884 74.1044 70.5751 80.4514C72.9191 86.7411 74.091 94.4317 74.091 103.523C74.091 113.301 73.1763 121.849 71.3469 129.168C69.5175 136.487 66.2017 142.176 61.3995 146.236C56.5973 150.296 49.7656 152.326 40.9044 152.326H0ZM29.4992 58.2372H35.6735C38.4747 58.2372 40.2756 57.1508 41.0759 54.9779C41.8763 52.8051 42.2765 50.2035 42.2765 47.173V31.9918C42.2765 27.1316 40.1326 24.7015 35.845 24.7015H29.4992V58.2372ZM32.5006 125.737C40.3327 125.737 44.2488 122.021 44.2488 114.587V95.7182C44.2488 91.4298 43.5914 88.0562 42.2765 85.5975C41.0188 83.0816 38.6177 81.8237 35.0732 81.8237H29.4992V125.566C30.7569 125.68 31.7574 125.737 32.5006 125.737Z" fill="#000910"/>
</svg>
