<svg width="100" height="62" viewBox="0 0 100 62" fill="none" xmlns="http://www.w3.org/2000/svg">
<path d="M36.6781 0.0423595C39.5222 -0.210569 43.504 0.705749 46.1127 1.81677C48.6717 2.90671 51.1017 4.49403 53.6303 5.67615C57.7728 4.69245 61.5918 4.07799 65.8929 4.06677C75.1556 4.04263 86.5392 6.56319 91.4418 15.3021C92.0537 16.3927 92.4829 17.5816 92.9838 18.726C95.0666 20.2132 99.3198 21.4939 99.933 24.2426C100.296 25.8673 99.1383 27.1681 97.4847 27.3148C94.9504 27.5397 92.3315 27.2726 89.7797 27.3646C85.4556 27.5149 80.9275 27.8446 76.6586 28.557C75.7177 30.0625 75.0517 31.4558 73.9281 32.9408C72.1295 35.3433 69.7132 37.5911 66.6527 38.1224C66.3589 38.1733 65.959 38.1633 65.724 37.9613C65.6283 37.8792 65.446 37.6475 65.4828 37.514C65.7603 36.513 66.278 35.6135 66.6 34.5912C66.9645 33.4346 67.0106 32.234 67.4476 31.1263C68.0627 30.1684 69.3603 28.4495 70.101 27.6039C70.9682 27.425 71.9545 27.3147 72.8383 27.2211C79.0375 26.5638 85.2986 25.6133 91.5424 25.6215C91.0339 25.4113 89.4907 25.0652 88.8773 24.9242C83.8674 23.7724 79.0433 23.359 73.9193 23.892C72.4748 24.0422 70.9549 24.0989 69.5385 24.5248C66.4818 29.9725 62.1929 35.2948 56.3002 37.8578C55.3021 38.2919 52.9808 39.0342 51.9965 38.6293C51.5168 38.1008 52.0552 37.4009 52.4633 36.9838C55.4375 33.9384 57.4883 29.5097 57.6654 25.1976C50.4653 24.8313 39.6658 29.4491 33.5619 33.2474C33.5128 33.2771 33.4632 33.3071 33.4144 33.3373C29.0172 36.0611 23.2331 41.0855 20.7103 45.6644C20.1362 46.7066 19.8283 47.7712 19.559 48.9174C19.7554 48.6339 19.963 48.3582 20.1801 48.0902C20.9345 47.16 21.9255 46.2175 22.7103 45.3304C29.1664 38.0333 36.9147 34.5814 46.142 32.0551C48.4367 31.4269 52.0845 30.4408 54.4594 30.1996C53.8106 30.4776 52.7334 30.7824 52.0111 31.0336C50.172 31.6584 48.3516 32.3352 46.5512 33.0629C38.9287 36.2261 31.2328 40.6449 25.0961 46.1918C24.0916 47.0998 22.7914 48.2739 21.9906 49.3304C21.9357 51.6238 23.0973 53.1888 23.6029 55.3861C23.8932 56.6478 24.0553 61.299 22.2982 61.6508C21.5817 61.4528 21.3675 60.2031 20.3578 59.3226C17.9861 57.2544 15.8652 56.9252 13.8314 54.3187C9.96197 56.9062 6.78392 55.5524 2.75135 57.0013C2.08188 57.2419 1.02221 58.1987 0.297244 58.0736C0.16139 57.9287 0.0588039 57.852 0.0169704 57.6508C-0.0756382 57.2031 0.233558 56.4148 0.393923 55.9955C1.83982 52.2168 5.82985 49.3222 9.35095 47.6342C10.7695 46.9541 12.8605 46.2899 13.9076 45.0619C14.4737 44.3977 14.7033 43.1248 14.9779 42.2972C16.5961 37.4191 18.6253 32.7207 21.432 28.3959C24.1545 24.2011 27.7677 20.3938 31.3226 16.8939C32.8159 15.4238 35.0178 13.7371 36.1517 12.0609C36.8374 11.0472 37.1304 9.97455 37.1234 8.75623C37.0962 4.10017 32.8214 3.78812 32.4847 1.73084C32.4496 1.51574 32.5101 1.31052 32.6439 1.14002C33.3417 0.251215 35.6135 0.160535 36.6781 0.0423595ZM85.0121 20.2054C87.9873 21.6772 91.1753 22.7718 94.3197 23.8285C94.8951 24.0219 96.961 24.6863 97.4779 24.7611C95.4919 23.2386 87.5204 20.1209 85.0121 20.2054ZM81.7396 16.5453C81.2698 16.6578 80.7818 16.7764 80.5121 17.2299C80.3847 17.4381 80.3507 17.6899 80.4174 17.9242C80.64 18.7067 81.4354 18.9504 82.1488 19.0345C82.6186 18.9472 83.059 18.8681 83.3558 18.4369C83.5094 18.2137 83.5621 17.9354 83.5004 17.6713C83.3118 16.8584 82.4812 16.5732 81.7396 16.5453Z" fill="white"/>
<path d="M64.8785 6.61866C68.2359 6.27062 74.3568 6.95067 77.5227 7.92483C82.8875 9.57556 85.8996 11.3031 88.6139 16.1611C78.5322 7.05621 62.4272 8.55868 50.4696 12.4131C45.2939 14.1994 40.3381 16.5688 35.6983 19.4754C33.8338 20.6499 31.9748 22.0894 30.2214 23.1821C31.3835 22.0127 32.6505 20.6983 33.8827 19.6304C42.7347 11.9585 53.1288 7.24884 64.8785 6.61866Z" fill="#76B6DC"/>
<path d="M58.5681 42.767C65.3475 42.3619 77.2201 43.5358 80.4285 50.7117C79.1144 50.0655 78.304 49.5352 76.8333 49.0265C68.7851 46.2431 60.1539 46.6344 51.8543 47.3997C44.3141 48.2788 36.3581 50.6803 28.9769 50.7577C37.3893 46.5468 49.1781 43.1688 58.5681 42.767Z" fill="white"/>
<path d="M56.6998 50.1119C61.2137 49.6738 68.2987 50.5251 70.399 55.2066C64.482 51.6423 54.819 53.5222 48.4879 54.7476C42.8416 55.7688 39.1243 56.1244 33.4465 55.6268C34.5944 55.1435 36.8263 54.508 38.076 54.1027C44.2487 52.1011 50.1834 50.533 56.6998 50.1119Z" fill="white"/>
</svg>
