 <svg width="33" height="20" viewBox="0 0 33 20" fill="none" xmlns="http://www.w3.org/2000/svg" aria-label="Blue Dolphin Express">
    <path d="M11.8981 0.0137245C12.8207 -0.0683378 14.1124 0.229496 14.9586 0.589896C15.7888 0.943483 16.5778 1.45739 17.3981 1.84087C18.7418 1.52181 19.9805 1.32304 21.3756 1.31939C24.3804 1.31155 28.0733 2.12906 29.6637 4.96392C29.8623 5.31775 30.0012 5.70398 30.1637 6.07525C30.8394 6.5577 32.2196 6.97269 32.4186 7.86431C32.5362 8.39125 32.1609 8.81362 31.6247 8.86138C30.8025 8.93434 29.9525 8.84716 29.1247 8.87701C27.7219 8.92576 26.2527 9.03259 24.8678 9.26372C24.5626 9.75213 24.3466 10.2048 23.9821 10.6866C23.3987 11.4657 22.6152 12.1948 21.6227 12.3672C21.5273 12.3838 21.3972 12.3802 21.3209 12.3145C21.2899 12.2879 21.231 12.2133 21.2428 12.17C21.3328 11.8453 21.5007 11.5533 21.6051 11.2217C21.7234 10.8465 21.7387 10.457 21.8805 10.0977C22.08 9.78696 22.5006 9.22946 22.7409 8.95513C23.0221 8.89712 23.342 8.86148 23.6286 8.83111C25.6395 8.61791 27.6706 8.30898 29.6959 8.31158C29.5306 8.24337 29.0304 8.1307 28.8317 8.08501C27.2067 7.71143 25.6421 7.57822 23.9801 7.75103C23.5115 7.79979 23.0178 7.81793 22.5582 7.95611C21.5667 9.72326 20.1758 11.4498 18.2643 12.2813C17.9406 12.4221 17.1872 12.6626 16.8678 12.5313C16.7123 12.3599 16.8868 12.1334 17.0192 11.9981C17.9841 11.0102 18.6493 9.57279 18.7067 8.17388C16.371 8.05507 12.8675 9.55302 10.8874 10.7852C10.8714 10.7948 10.8553 10.8047 10.8395 10.8145C9.41305 11.6981 7.53684 13.3281 6.71841 14.8135C6.53214 15.1516 6.43275 15.4974 6.34536 15.8692C6.40908 15.7773 6.47613 15.6876 6.54653 15.6006C6.79126 15.2989 7.11228 14.9929 7.36684 14.7051C9.46122 12.3379 11.975 11.218 14.9684 10.3985C15.7128 10.1947 16.8962 9.87519 17.6666 9.79693C17.4563 9.88709 17.107 9.98597 16.8727 10.0674C16.2761 10.2701 15.6853 10.4896 15.1012 10.7256C12.6286 11.7518 10.132 13.1851 8.14126 14.9844C7.8154 15.279 7.39321 15.6602 7.13344 16.003C7.11563 16.747 7.49285 17.255 7.65688 17.9678C7.75099 18.3776 7.80297 19.8861 7.23305 20.0001C7.00084 19.9356 6.93157 19.5297 6.60415 19.2442C5.8348 18.5733 5.14668 18.4666 4.48696 17.6211C3.2317 18.4605 2.20041 18.0212 0.892234 18.4913C0.675029 18.5694 0.331474 18.8796 0.0963356 18.8389C0.052356 18.792 0.0190786 18.7674 0.00551526 18.7022C-0.02453 18.557 0.0755669 18.3011 0.127586 18.1651C0.596645 16.9393 1.89157 16.0008 3.03384 15.4532C3.494 15.2326 4.17172 15.0165 4.51137 14.6182C4.69498 14.4028 4.76996 13.9902 4.85903 13.7217C5.38399 12.1392 6.04227 10.615 6.95278 9.21197C7.83596 7.85118 9.00756 6.61588 10.1608 5.48052C10.6451 5.00371 11.3592 4.45678 11.7272 3.91314C11.9496 3.58434 12.0449 3.23604 12.0426 2.84087C12.0338 1.33039 10.6469 1.22902 10.5377 0.561576C10.5264 0.491864 10.5462 0.42545 10.5895 0.37017C10.8157 0.0818185 11.5526 0.0520532 11.8981 0.0137245ZM27.5788 6.55474C28.5439 7.03216 29.5783 7.38678 30.5983 7.72954C30.7844 7.79211 31.454 8.00761 31.6227 8.03228C30.9778 7.53826 28.3922 6.52728 27.5788 6.55474ZM26.5163 5.36724C26.364 5.40369 26.2053 5.44211 26.1178 5.58892C26.0765 5.65645 26.065 5.73855 26.0866 5.81451C26.1587 6.06845 26.4177 6.14751 26.6491 6.17486C26.8013 6.14655 26.9444 6.1202 27.0407 5.98052C27.0903 5.90815 27.1076 5.81803 27.0875 5.73247C27.0264 5.46882 26.7568 5.37631 26.5163 5.36724Z" fill="#005E9D"/>
    <path d="M21.0458 2.14709C22.1349 2.03419 24.1205 2.2548 25.1476 2.57082C26.8879 3.10632 27.8651 3.66675 28.7456 5.24268C25.4751 2.28904 20.2506 2.77644 16.3715 4.02682C14.6925 4.60631 13.0848 5.37493 11.5796 6.31786C10.9748 6.69887 10.3717 7.16583 9.80293 7.5203C10.1799 7.14094 10.5909 6.71455 10.9907 6.36812C13.8623 3.87936 17.2341 2.35153 21.0458 2.14709Z" fill="#76B6DC"/>
    <path d="M18.9983 13.8737C21.1976 13.7423 25.0491 14.1231 26.0899 16.451C25.6636 16.2414 25.4007 16.0693 24.9236 15.9043C22.3128 15.0014 19.5128 15.1283 16.8204 15.3766C14.3743 15.6617 11.7934 16.4408 9.39888 16.4659C12.1279 15.0999 15.9522 14.0041 18.9983 13.8737Z" fill="#005E9D"/>
    <path d="M18.3925 16.2564C19.8568 16.1143 22.1552 16.3905 22.8365 17.9092C20.9171 16.7529 17.7824 17.3627 15.7285 17.7603C13.8969 18.0915 12.6909 18.2069 10.8491 18.0455C11.2214 17.8887 11.9455 17.6825 12.3509 17.5511C14.3533 16.9017 16.2785 16.393 18.3925 16.2564Z" fill="#005E9D"/>
  </svg>