<svg width="20" height="20" viewBox="0 0 20 20" fill="none" xmlns="http://www.w3.org/2000/svg">
<path d="M15.875 4.0917C15.1109 3.32012 14.2008 2.70834 13.1979 2.292C12.195 1.87567 11.1192 1.6631 10.0333 1.6667C5.48331 1.6667 1.77498 5.37504 1.77498 9.92504C1.77498 11.3834 2.15831 12.8 2.87498 14.05L1.70831 18.3334L6.08331 17.1834C7.29165 17.8417 8.64998 18.1917 10.0333 18.1917C14.5833 18.1917 18.2916 14.4834 18.2916 9.93337C18.2916 7.72504 17.4333 5.65003 15.875 4.0917ZM10.0333 16.7917C8.79998 16.7917 7.59165 16.4584 6.53331 15.8334L6.28331 15.6834L3.68331 16.3667L4.37498 13.8334L4.20831 13.575C3.52294 12.4809 3.15908 11.2161 3.15831 9.92504C3.15831 6.1417 6.24165 3.05837 10.025 3.05837C11.8583 3.05837 13.5833 3.77504 14.875 5.07504C15.5147 5.71159 16.0216 6.46882 16.3663 7.30281C16.7111 8.1368 16.8868 9.03094 16.8833 9.93337C16.9 13.7167 13.8166 16.7917 10.0333 16.7917ZM13.8 11.6584C13.5916 11.5584 12.575 11.0584 12.3916 10.9834C12.2 10.9167 12.0666 10.8834 11.925 11.0834C11.7833 11.2917 11.3916 11.7584 11.275 11.8917C11.1583 12.0334 11.0333 12.05 10.825 11.9417C10.6166 11.8417 9.94998 11.6167 9.16665 10.9167C8.54998 10.3667 8.14165 9.6917 8.01665 9.48337C7.89998 9.27504 7.99998 9.1667 8.10831 9.05837C8.19998 8.9667 8.31665 8.8167 8.41665 8.70004C8.51665 8.58337 8.55831 8.4917 8.62498 8.35837C8.69165 8.2167 8.65831 8.10004 8.60831 8.00004C8.55831 7.90004 8.14165 6.88337 7.97498 6.4667C7.80831 6.0667 7.63331 6.1167 7.50831 6.10837H7.10831C6.96665 6.10837 6.74998 6.15837 6.55831 6.3667C6.37498 6.57503 5.84165 7.07503 5.84165 8.0917C5.84165 9.10837 6.58331 10.0917 6.68331 10.225C6.78331 10.3667 8.14165 12.45 10.2083 13.3417C10.7 13.5584 11.0833 13.6834 11.3833 13.775C11.875 13.9334 12.325 13.9084 12.6833 13.8584C13.0833 13.8 13.9083 13.3584 14.075 12.875C14.25 12.3917 14.25 11.9834 14.1916 11.8917C14.1333 11.8 14.0083 11.7584 13.8 11.6584Z" fill="#000910"/>
</svg>
